<?xml version="1.0" standalone="no"?>
<!DOCTYPE svg PUBLIC "-//W3C//DTD SVG 20010904//EN"
 "http://www.w3.org/TR/2001/REC-SVG-20010904/DTD/svg10.dtd">
<svg version="1.0" xmlns="http://www.w3.org/2000/svg"
 width="204.000000pt" height="192.000000pt" viewBox="0 0 204.000000 192.000000"
 preserveAspectRatio="xMidYMid meet">

<g transform="translate(0.000000,192.000000) scale(0.100000,-0.100000)"
fill="#000000" stroke="none">
<path d="M0 960 l0 -960 1020 0 1020 0 0 960 0 960 -1020 0 -1020 0 0 -960z
m1033 343 c-7 -2 -19 -2 -25 0 -7 3 -2 5 12 5 14 0 19 -2 13 -5z m-108 -13
c-3 -5 -12 -10 -18 -10 -7 0 -6 4 3 10 19 12 23 12 15 0z m347 -2 c-15 -15
-16 -32 -2 -23 6 3 10 1 10 -5 0 -7 -7 -10 -14 -7 -19 8 -32 -31 -16 -47 8 -8
10 -6 5 9 l-7 20 18 -20 c13 -16 16 -17 11 -3 -3 10 -2 20 3 23 5 3 11 -3 13
-12 4 -14 5 -12 6 5 0 13 10 33 22 45 l21 22 -15 -37 c-21 -50 -9 -56 19 -10
13 20 24 32 24 26 0 -5 -7 -19 -15 -30 -8 -10 -15 -27 -15 -37 0 -10 -4 -15
-10 -12 -6 3 -7 -1 -4 -10 4 -8 -1 -26 -10 -40 -9 -13 -16 -29 -16 -34 0 -6
-13 -39 -29 -73 -15 -35 -76 -177 -136 -315 -59 -139 -111 -253 -115 -253 -4
0 -16 21 -27 48 -85 197 -181 421 -214 495 -21 48 -39 92 -39 97 0 8 -49 119
-66 151 -7 13 120 -1 128 -14 4 -6 5 -20 2 -31 -4 -12 -2 -16 5 -12 6 4 15 -3
20 -16 5 -13 26 -61 48 -108 22 -47 62 -136 89 -197 43 -100 64 -133 64 -104
0 5 16 44 36 88 20 43 45 98 55 123 11 25 40 86 64 135 25 50 45 95 45 100 0
14 38 75 47 75 4 0 2 -5 -5 -12z m-236 -14 c-3 -8 0 -22 8 -30 8 -7 17 -19 20
-26 5 -10 7 -10 12 0 3 6 12 12 19 12 7 0 15 -6 18 -12 3 -8 9 -3 16 12 10 23
11 23 5 -7 -3 -19 -1 -33 4 -33 5 0 10 6 9 13 -1 35 5 70 10 57 3 -8 9 -17 13
-20 5 -3 1 -22 -7 -42 -14 -36 -17 -37 -47 -31 -32 8 -145 9 -183 3 -13 -3
-23 -9 -23 -14 0 -15 -26 24 -34 51 -6 18 -4 22 9 17 9 -4 14 -13 11 -20 -3
-8 0 -11 10 -7 7 3 14 11 14 19 0 8 7 14 15 14 7 0 19 8 25 18 8 13 9 11 4
-12 -9 -39 16 -31 29 10 10 28 24 44 41 44 4 0 5 -7 2 -16z m148 -10 c3 -8 2
-12 -4 -9 -6 3 -10 10 -10 16 0 14 7 11 14 -7z m-469 -215 c20 -51 26 -80 22
-106 -5 -30 5 -62 58 -183 64 -144 77 -181 52 -149 -12 16 -81 93 -263 293
-51 56 -104 115 -118 133 l-27 32 88 -24 c48 -14 91 -25 95 -25 4 0 17 23 29
50 12 28 25 50 29 50 4 0 19 -32 35 -71z m674 21 c12 -27 25 -50 29 -50 4 0
45 11 92 25 46 13 86 22 88 21 1 -2 -71 -84 -160 -183 -90 -98 -184 -203 -210
-232 -27 -29 -48 -49 -48 -44 0 5 29 74 65 153 54 122 64 150 59 181 -5 27 1
57 21 108 15 39 30 71 35 71 4 0 17 -22 29 -50z"/>
<path d="M710 1241 c0 -10 80 -24 89 -16 10 10 -23 25 -56 25 -18 0 -33 -4
-33 -9z"/>
</g>
</svg>
